<svg id="Layer_4" data-name="Layer 4" xmlns="http://www.w3.org/2000/svg" width="306.9" height="54.8" viewBox="0 0 306.9 54.8">
  <defs>
    <style>
      .cls-1 {
        fill: #fff;
      }
    </style>
  </defs>
  <title>scotiabank-logo</title>
  <g>
    <path class="cls-1" d="M2096.4,739.3c3.1,0,4.8-2.7,4.8-5.8s-1.7-6-4.8-6-4.8,2.7-4.8,6,1.8,5.8,4.8,5.8m0,5.4c-7.4,0-12.6-4.4-12.6-11.4s5.4-11.4,12.6-11.4,12.6,4.6,12.6,11.4-5.3,11.3-12.6,11.3h0Z" transform="translate(-1970 -702.5)"/>
    <path class="cls-1" d="M2186.9,733.5c0-2.8-1.7-5.5-4.6-5.5s-4.6,2.1-4.6,5.5,1.7,5.5,4.6,5.5,4.6-2.3,4.6-5.5m-16.6,10.8V713.8h7.5v10.5h0.1a12.3,12.3,0,0,1,6.5-2.1c5.8,0,10.2,4.7,10.2,10.9,0,7.8-4.8,11.7-10.2,11.7a8.7,8.7,0,0,1-6.7-2.4h-0.1v2h-7.2Z" transform="translate(-1970 -702.5)"/>
    <path class="cls-1" d="M2133.7,711.6a4.3,4.3,0,1,0,4.3,4.3h0a4.4,4.4,0,0,0-4.3-4.3m-3.8,11.1h7.5v21.8h-7.5V722.7Z" transform="translate(-1970 -702.5)"/>
    <path class="cls-1" d="M2227,744.3h7.4V733.1a4.1,4.1,0,0,1,3.8-4.4h0.2c2.6,0,4,1.7,4,4.4v11.2h7.4v-13a8.5,8.5,0,0,0-7.9-9.1h-1a9.5,9.5,0,0,0-6.8,3h-0.1v-2.4H2227v21.6" transform="translate(-1970 -702.5)"/>
    <polyline class="cls-1" points="284.2 41.9 291.7 41.9 291.7 31.9 291.8 31.9 298.5 41.9 306.9 41.9 298.8 30.3 306.6 20.2 298.4 20.2 291.8 29.2 291.7 29.2 291.7 11.3 284.2 11.3 284.2 41.9"/>
    <path class="cls-1" d="M2081.9,722.9a19.5,19.5,0,0,0-5.4-.9c-6.8,0-11.9,4.3-11.9,11.4a11,11,0,0,0,10.7,11.4h1a17.2,17.2,0,0,0,5.7-1l-0.4-6.4a8.8,8.8,0,0,1-3.8,1.1,5,5,0,0,1-5.3-4.8q0-.2,0-0.5a5.2,5.2,0,0,1,5.1-5.3h0.3a8.4,8.4,0,0,1,3.7,1l0.4-6.1" transform="translate(-1970 -702.5)"/>
    <path class="cls-1" d="M2148.8,733.2c0,3.6,2,5.8,4.6,5.8a5,5,0,0,0,4.7-5.3v-0.2c0-3.3-2-5.7-4.7-5.7a5,5,0,0,0-4.6,5.4m16.6-10.5v21.8h-7.4v-2.1h-0.1a9.4,9.4,0,0,1-7.3,2.7c-5.3,0-9.8-4.6-9.8-11.4s4.1-11.4,10.4-11.4a9,9,0,0,1,6.7,2.4h0.1v-2h7.4Z" transform="translate(-1970 -702.5)"/>
    <path class="cls-1" d="M2205.4,733.2c0,3.6,2,5.8,4.6,5.8a5,5,0,0,0,4.7-5.3v-0.2c0-3.3-2-5.7-4.7-5.7a5,5,0,0,0-4.6,5.4m16.6-10.5v21.8h-7.4v-2.1h-0.1a9.4,9.4,0,0,1-7.3,2.7c-5.3,0-9.8-4.6-9.8-11.4s4.1-11.4,10.4-11.4a9,9,0,0,1,6.7,2.4h0.1v-2h7.4Z" transform="translate(-1970 -702.5)"/>
    <path class="cls-1" d="M2040.4,743.6a34,34,0,0,0,8.7,1.3c6.4,0,12.9-2.3,12.9-9.4,0-9.7-13.4-8.4-13.4-12.2,0-2,2-2.4,4.1-2.4a18.9,18.9,0,0,1,7.1,1.7l0.6-6.7a25.1,25.1,0,0,0-7.7-1c-6.4,0-12.6,2.4-12.6,8.8,0,9.5,13.4,7.5,13.4,12.5,0,2-1.8,2.7-4.4,2.7a20.6,20.6,0,0,1-8-2.3l-0.7,7" transform="translate(-1970 -702.5)"/>
    <path class="cls-1" d="M2126.3,738.5l-2.1.4a3,3,0,0,1-3.3-3.3v-7.4h4.7v-5.4h-4.7v-7.1h-7.5v7h-3.3V728h3.3v8.5c0,4.7,2.1,8.1,7.8,8.1a28.4,28.4,0,0,0,4.1-.4l1-5.7" transform="translate(-1970 -702.5)"/>
    <path class="cls-1" d="M2013.7,729.8c0.3,9.4-8.2,16.5-15.3,16.5h-17.5L1970,757.2h28.3a18.2,18.2,0,0,0,17.6-17.8,17.4,17.4,0,0,0-2.1-9.4v-0.3m-3,7a14.2,14.2,0,0,0,1.7-6.1h-7.9a18.9,18.9,0,0,1-1,6.1h7.3Zm-7.6,1.2a18.4,18.4,0,0,1-5.1,7,13.8,13.8,0,0,0,11.8-7h-6.7Zm-1-1.1a31.2,31.2,0,0,0,1.3-6.1h-12a21.2,21.2,0,0,0,1.3,6.1h9.5Zm-10.9,0a20,20,0,0,1-1.1-6.1h-7.8a15.1,15.1,0,0,0,1.7,6.1h7.3Zm6.2,6.8a21.3,21.3,0,0,0,4.3-5.7h-8.6a18.7,18.7,0,0,0,4.3,5.6h0.1Zm-12.8-5.7a14.7,14.7,0,0,0,12.2,7,15.4,15.4,0,0,1-5.1-7h-7.1Zm18.9-14.8a17.2,17.2,0,0,1,1,6.1h8.1a15.1,15.1,0,0,0-1.7-6.1h-7.4Zm6.4-1.4a14.5,14.5,0,0,0-12.1-6.8,17,17,0,0,1,5.1,6.8h7Zm-17.3,1.4a27.4,27.4,0,0,0-1.3,6.1h11.8a21.2,21.2,0,0,0-1.3-6.1h-9.2Zm-8.7,0a15.1,15.1,0,0,0-1.7,6.1h8a17.3,17.3,0,0,1,1.1-6.1H1984Zm13.5-7a18.1,18.1,0,0,0-4.3,5.5h8.5a20.6,20.6,0,0,0-4.3-5.6h0.1Zm-5.7,5.5a15.8,15.8,0,0,1,5.1-6.8,15.2,15.2,0,0,0-12.2,6.8h7.1Zm-10.8,8a18.8,18.8,0,0,1-2.1-9.4,18.4,18.4,0,0,1,17.8-17.9h28.3l-10.9,11.1h-17.7c-7-.1-15.5,7-15.3,16.1h0.1Z" transform="translate(-1970 -702.5)"/>
  </g>
</svg>
